<svg width="100" height="21" viewBox="0 0 100 21" fill="none" xmlns="http://www.w3.org/2000/svg">
<path d="M3.19922 1.78125V16H0.269531V1.78125H3.19922ZM8.86328 7.85547V10.1406H2.39844V7.85547H8.86328ZM9.54688 1.78125V4.07617H2.39844V1.78125H9.54688ZM14.0391 1V16H11.2168V1H14.0391ZM19.332 5.43359V16H16.5098V5.43359H19.332ZM16.334 2.67969C16.334 2.26953 16.4772 1.93099 16.7637 1.66406C17.0501 1.39714 17.4342 1.26367 17.916 1.26367C18.3913 1.26367 18.7721 1.39714 19.0586 1.66406C19.3516 1.93099 19.498 2.26953 19.498 2.67969C19.498 3.08984 19.3516 3.42839 19.0586 3.69531C18.7721 3.96224 18.3913 4.0957 17.916 4.0957C17.4342 4.0957 17.0501 3.96224 16.7637 3.69531C16.4772 3.42839 16.334 3.08984 16.334 2.67969ZM26.0215 13.998C26.3665 13.998 26.6725 13.9329 26.9395 13.8027C27.2064 13.666 27.4147 13.4772 27.5645 13.2363C27.7207 12.9889 27.8021 12.6992 27.8086 12.3672H30.4551C30.4486 13.1094 30.25 13.7702 29.8594 14.3496C29.4688 14.9225 28.9447 15.375 28.2871 15.707C27.6296 16.0326 26.8939 16.1953 26.0801 16.1953C25.2598 16.1953 24.5436 16.0586 23.9316 15.7852C23.3262 15.5117 22.8216 15.1341 22.418 14.6523C22.0143 14.1641 21.7116 13.5977 21.5098 12.9531C21.3079 12.3021 21.207 11.6055 21.207 10.8633V10.5801C21.207 9.83138 21.3079 9.13477 21.5098 8.49023C21.7116 7.83919 22.0143 7.27279 22.418 6.79102C22.8216 6.30273 23.3262 5.92188 23.9316 5.64844C24.5371 5.375 25.2467 5.23828 26.0605 5.23828C26.9264 5.23828 27.6849 5.4043 28.3359 5.73633C28.9935 6.06836 29.5078 6.54362 29.8789 7.16211C30.2565 7.77409 30.4486 8.5 30.4551 9.33984H27.8086C27.8021 8.98828 27.7272 8.66927 27.584 8.38281C27.4473 8.09635 27.2454 7.86849 26.9785 7.69922C26.7181 7.52344 26.3958 7.43555 26.0117 7.43555C25.6016 7.43555 25.2663 7.52344 25.0059 7.69922C24.7454 7.86849 24.5436 8.10286 24.4004 8.40234C24.2572 8.69531 24.1562 9.0306 24.0977 9.4082C24.0456 9.7793 24.0195 10.1699 24.0195 10.5801V10.8633C24.0195 11.2734 24.0456 11.6673 24.0977 12.0449C24.1497 12.4225 24.2474 12.7578 24.3906 13.0508C24.5404 13.3438 24.7454 13.5749 25.0059 13.7441C25.2663 13.9134 25.6048 13.998 26.0215 13.998ZM34.8984 0.990234V16H32.0859V0.990234H34.8984ZM41.5586 5.43359L36.9688 10.668L34.5078 13.1582L33.4824 11.127L35.4355 8.64648L38.1797 5.43359H41.5586ZM38.6387 16L35.5137 11.1172L37.457 9.41797L41.8809 16H38.6387ZM47.4375 16.1953C46.6172 16.1953 45.8815 16.0651 45.2305 15.8047C44.5794 15.5378 44.026 15.1699 43.5703 14.7012C43.1211 14.2324 42.776 13.6888 42.5352 13.0703C42.2943 12.4453 42.1738 11.7812 42.1738 11.0781V10.6875C42.1738 9.88672 42.2878 9.1543 42.5156 8.49023C42.7435 7.82617 43.069 7.25 43.4922 6.76172C43.9219 6.27344 44.4427 5.89909 45.0547 5.63867C45.6667 5.37174 46.3568 5.23828 47.125 5.23828C47.8737 5.23828 48.5378 5.36198 49.1172 5.60938C49.6966 5.85677 50.1816 6.20833 50.5723 6.66406C50.9694 7.11979 51.2689 7.66667 51.4707 8.30469C51.6725 8.9362 51.7734 9.63932 51.7734 10.4141V11.5859H43.375V9.71094H49.0098V9.49609C49.0098 9.10547 48.9382 8.75716 48.7949 8.45117C48.6582 8.13867 48.4499 7.89128 48.1699 7.70898C47.89 7.52669 47.5319 7.43555 47.0957 7.43555C46.7246 7.43555 46.4056 7.51693 46.1387 7.67969C45.8717 7.84245 45.6536 8.07031 45.4844 8.36328C45.3216 8.65625 45.1979 9.0013 45.1133 9.39844C45.0352 9.78906 44.9961 10.2188 44.9961 10.6875V11.0781C44.9961 11.5013 45.0547 11.8919 45.1719 12.25C45.2956 12.6081 45.4681 12.9173 45.6895 13.1777C45.9173 13.4382 46.1908 13.64 46.5098 13.7832C46.8353 13.9264 47.2031 13.998 47.6133 13.998C48.1211 13.998 48.5931 13.9004 49.0293 13.7051C49.472 13.5033 49.8529 13.2005 50.1719 12.7969L51.5391 14.2812C51.3177 14.6003 51.015 14.9062 50.6309 15.1992C50.2533 15.4922 49.7975 15.7331 49.2637 15.9219C48.7298 16.1042 48.1211 16.1953 47.4375 16.1953ZM56.1875 7.73828V16H53.375V5.43359H56.0215L56.1875 7.73828ZM59.3711 5.36523L59.3223 7.97266C59.1855 7.95312 59.0195 7.93685 58.8242 7.92383C58.6354 7.9043 58.4629 7.89453 58.3066 7.89453C57.9095 7.89453 57.5645 7.94661 57.2715 8.05078C56.985 8.14844 56.7441 8.29492 56.5488 8.49023C56.36 8.68555 56.2168 8.92318 56.1191 9.20312C56.028 9.48307 55.9759 9.80208 55.9629 10.1602L55.3965 9.98438C55.3965 9.30078 55.4648 8.67253 55.6016 8.09961C55.7383 7.52018 55.9368 7.01562 56.1973 6.58594C56.4642 6.15625 56.7897 5.82422 57.1738 5.58984C57.5579 5.35547 57.9974 5.23828 58.4922 5.23828C58.6484 5.23828 58.8079 5.2513 58.9707 5.27734C59.1335 5.29688 59.2669 5.32617 59.3711 5.36523ZM66.2461 8.79297V11H60.7285V8.79297H66.2461Z" fill="#4895EF"/>
<path d="M77.9062 13.7148V16H70.748V13.7148H77.9062ZM71.6953 1.78125V16H68.7656V1.78125H71.6953ZM78.9609 10.8242V10.6191C78.9609 9.8444 79.0716 9.13151 79.293 8.48047C79.5143 7.82292 79.8366 7.25326 80.2598 6.77148C80.6829 6.28971 81.2038 5.91536 81.8223 5.64844C82.4408 5.375 83.1504 5.23828 83.9512 5.23828C84.752 5.23828 85.4648 5.375 86.0898 5.64844C86.7148 5.91536 87.2389 6.28971 87.6621 6.77148C88.0918 7.25326 88.4173 7.82292 88.6387 8.48047C88.86 9.13151 88.9707 9.8444 88.9707 10.6191V10.8242C88.9707 11.5924 88.86 12.3053 88.6387 12.9629C88.4173 13.6139 88.0918 14.1836 87.6621 14.6719C87.2389 15.1536 86.7181 15.528 86.0996 15.7949C85.4811 16.0618 84.7715 16.1953 83.9707 16.1953C83.1699 16.1953 82.457 16.0618 81.832 15.7949C81.2135 15.528 80.6895 15.1536 80.2598 14.6719C79.8366 14.1836 79.5143 13.6139 79.293 12.9629C79.0716 12.3053 78.9609 11.5924 78.9609 10.8242ZM81.7734 10.6191V10.8242C81.7734 11.2669 81.8125 11.6803 81.8906 12.0645C81.9688 12.4486 82.0924 12.7871 82.2617 13.0801C82.4375 13.3665 82.6654 13.5911 82.9453 13.7539C83.2253 13.9167 83.5671 13.998 83.9707 13.998C84.3613 13.998 84.6966 13.9167 84.9766 13.7539C85.2565 13.5911 85.4811 13.3665 85.6504 13.0801C85.8197 12.7871 85.9434 12.4486 86.0215 12.0645C86.1061 11.6803 86.1484 11.2669 86.1484 10.8242V10.6191C86.1484 10.1895 86.1061 9.78581 86.0215 9.4082C85.9434 9.02409 85.8164 8.68555 85.6406 8.39258C85.4714 8.0931 85.2467 7.85872 84.9668 7.68945C84.6868 7.52018 84.3483 7.43555 83.9512 7.43555C83.554 7.43555 83.2155 7.52018 82.9355 7.68945C82.6621 7.85872 82.4375 8.0931 82.2617 8.39258C82.0924 8.68555 81.9688 9.02409 81.8906 9.4082C81.8125 9.78581 81.7734 10.1895 81.7734 10.6191ZM97.3887 5.43359H99.9375V15.6484C99.9375 16.612 99.7227 17.429 99.293 18.0996C98.8698 18.7767 98.2773 19.2878 97.5156 19.6328C96.7539 19.9844 95.8685 20.1602 94.8594 20.1602C94.4167 20.1602 93.9479 20.1016 93.4531 19.9844C92.9648 19.8672 92.4961 19.6849 92.0469 19.4375C91.6042 19.1901 91.2331 18.8776 90.9336 18.5L92.1738 16.8398C92.4993 17.2174 92.877 17.5104 93.3066 17.7188C93.7363 17.9336 94.2116 18.041 94.7324 18.041C95.2402 18.041 95.6699 17.9466 96.0215 17.7578C96.373 17.5755 96.6432 17.3053 96.832 16.9473C97.0208 16.5957 97.1152 16.1693 97.1152 15.668V7.875L97.3887 5.43359ZM90.2793 10.8438V10.6387C90.2793 9.83138 90.377 9.09896 90.5723 8.44141C90.7741 7.77734 91.0573 7.20768 91.4219 6.73242C91.793 6.25716 92.2422 5.88932 92.7695 5.62891C93.2969 5.36849 93.8926 5.23828 94.5566 5.23828C95.2598 5.23828 95.849 5.36849 96.3242 5.62891C96.7995 5.88932 97.1901 6.26042 97.4961 6.74219C97.8021 7.21745 98.0397 7.7806 98.209 8.43164C98.3848 9.07617 98.5215 9.78255 98.6191 10.5508V11C98.5215 11.7357 98.375 12.4193 98.1797 13.0508C97.9844 13.6823 97.7272 14.2357 97.4082 14.7109C97.0892 15.1797 96.6921 15.5443 96.2168 15.8047C95.748 16.0651 95.1882 16.1953 94.5371 16.1953C93.8861 16.1953 93.2969 16.0618 92.7695 15.7949C92.2487 15.528 91.8027 15.1536 91.4316 14.6719C91.0605 14.1901 90.7741 13.6237 90.5723 12.9727C90.377 12.3216 90.2793 11.612 90.2793 10.8438ZM93.0918 10.6387V10.8438C93.0918 11.2799 93.1341 11.6868 93.2188 12.0645C93.3034 12.4421 93.4336 12.7773 93.6094 13.0703C93.7917 13.3568 94.0163 13.5814 94.2832 13.7441C94.5566 13.9004 94.8789 13.9785 95.25 13.9785C95.7643 13.9785 96.1842 13.8711 96.5098 13.6562C96.8353 13.4349 97.0794 13.1322 97.2422 12.748C97.4049 12.3639 97.4993 11.9212 97.5254 11.4199V10.1406C97.5124 9.73047 97.457 9.36263 97.3594 9.03711C97.2617 8.70508 97.125 8.42188 96.9492 8.1875C96.7734 7.95312 96.5456 7.77083 96.2656 7.64062C95.9857 7.51042 95.6536 7.44531 95.2695 7.44531C94.8984 7.44531 94.5762 7.52995 94.3027 7.69922C94.0358 7.86198 93.8112 8.08659 93.6289 8.37305C93.4531 8.65951 93.3197 8.99805 93.2285 9.38867C93.1374 9.77279 93.0918 10.1895 93.0918 10.6387Z" fill="#F72585"/>
</svg>
